<?xml version="1.0" encoding="iso-8859-1"?>
<!-- Generator: Adobe Illustrator 19.0.0, SVG Export Plug-In . SVG Version: 6.00 Build 0)  -->
<svg version="1.1" id="Capa_1" xmlns="http://www.w3.org/2000/svg" xmlns:xlink="http://www.w3.org/1999/xlink" x="0px" y="0px"
	 viewBox="0 0 512.262 512.262" style="enable-background:new 0 0 512.262 512.262;" xml:space="preserve">
<g>
	<path style="fill:#344A5E;" d="M148.267,416.131c0,4.267-1.067,8.533-3.2,11.733l-43.733,84.267H42.667l56.533-108.8
		c6.4-12.8,22.4-18.133,35.2-10.667C142.933,396.931,148.267,406.531,148.267,416.131z"/>
	<path style="fill:#344A5E;" d="M361.6,512.131h-59.733l-43.733-84.267c-1.067-3.2-2.133-7.467-2.133-11.733
		c0-9.6,5.333-19.2,13.867-23.467c12.8-6.4,28.8-2.133,35.2,10.667L361.6,512.131z"/>
</g>
<rect x="21.333" y="21.464" style="fill:#E8EAE9;" width="361.6" height="401.067"/>
<g>
	<rect x="64" y="341.464" style="fill:#ADB3BA;" width="125.867" height="20.267"/>
	<rect x="64" y="300.931" style="fill:#ADB3BA;" width="276.267" height="20.267"/>
</g>
<g>
	<path style="fill:#F3705A;" d="M382.933,42.798h-361.6C9.6,42.798,0,33.198,0,21.464S9.6,0.131,21.333,0.131h361.6
		c11.733,0,21.333,9.6,21.333,21.333S394.667,42.798,382.933,42.798z"/>
	<path style="fill:#F3705A;" d="M382.933,443.864h-361.6C9.6,443.864,0,434.264,0,422.531s9.6-21.333,21.333-21.333h361.6
		c11.733,0,21.333,9.6,21.333,21.333S394.667,443.864,382.933,443.864z"/>
</g>
<rect x="327.467" y="460.931" style="fill:#E8EAE9;" width="34.133" height="51.2"/>
<g>
	<ellipse style="fill:#344A5E;" cx="362.667" cy="203.864" rx="14.933" ry="29.867"/>
	<path style="fill:#344A5E;" d="M370.133,169.731c-4.267,9.6-7.467,19.2-7.467,28.8c0,8.533,1.067,16,2.133,24.533
		c1.067,8.533,1.067,16-2.133,24.533c-2.133,5.333-5.333,10.667-7.467,16c-2.133,5.333-4.267,10.667-4.267,16
		c-4.267-13.867-5.333-27.733-4.267-42.667c-4.267,12.8-10.667,25.6-18.133,37.333c-6.4,9.6-10.667,20.267-11.733,30.933
		c-17.067-57.6,50.133-145.067,56.533-148.267"/>
	<ellipse style="fill:#344A5E;" cx="427.733" cy="186.798" rx="16" ry="29.867"/>
</g>
<g>
	
		<ellipse transform="matrix(0.2868 -0.958 0.958 0.2868 148.1758 534.3925)" style="fill:#FFD15C;" cx="432.992" cy="167.68" rx="14.933" ry="6.4"/>
	<path style="fill:#FFD15C;" d="M436.267,152.664c0,0-8.533,26.667-11.733,36.267c-3.2,9.6-4.267,25.6-4.267,25.6l2.133,30.933
		l-85.333,88.533l-1.067-51.2l26.667-57.6c0,0,5.333-3.2,5.333-10.667c1.067-8.533,1.067-11.733,1.067-11.733s-16-2.133-16-16
		c0-13.867-7.467-30.933-3.2-44.8c4.267-12.8,12.8-38.4,19.2-46.933c6.4-8.533,23.467-12.8,23.467-12.8L436.267,152.664z"/>
</g>
<path style="fill:#66C6B9;" d="M342.4,512.131h138.667c-3.2-17.067-8.533-42.667-18.133-59.733
	c-16-27.733-23.467-42.667-11.733-83.2c11.733-40.533,40.533-90.667,25.6-118.4s-28.8-38.4-28.8-38.4s-60.8,68.267-75.733,84.267
	c-14.933,14.933-35.2,39.467-35.2,39.467s-10.667,22.4-9.6,30.933C330.667,371.331,332.8,464.131,342.4,512.131z"/>
<path style="fill:#E8EAE9;" d="M369.067,210.264c0,0,0,14.933-4.267,29.867c-1.067,8.533-20.267,64-20.267,64L384,248.664l0,0
	c-4.267-3.2-4.267-9.6,0-13.867l24.533-25.6l19.2,13.867c0,0-93.867,100.267-97.067,117.333c-3.2,16-1.067,19.2-1.067,19.2
	s-17.067-17.067-14.933-27.733c1.067-10.667,28.8-100.267,28.8-100.267l11.733-2.133C355.2,229.464,364.8,214.531,369.067,210.264z"
	/>
<path style="fill:#66C6B9;" d="M413.867,202.798c0,0-27.733,39.467-43.733,65.067s-38.4,52.267-41.6,65.067s0,32,0,32
	s1.067-17.067,10.667-26.667c9.6-9.6,74.667-83.2,74.667-83.2l9.6-32L413.867,202.798z"/>
<g>
	<path style="fill:#4ABAA5;" d="M320,448.131c-1.067,10.667-2.133,42.667-3.2,64h14.933c4.267-27.733,8.533-98.133,7.467-119.467
		c-2.133-25.6-9.6-33.067-9.6-33.067l-4.267-4.267c0,0,3.2,36.267,1.067,45.867C324.267,410.798,321.067,434.264,320,448.131z"/>
	<path style="fill:#4ABAA5;" d="M347.733,213.464c0,0-12.8,76.8-19.2,90.667c-6.4,13.867-8.533,28.8-5.333,37.333
		c2.133,8.533,6.4,18.133,6.4,18.133s-18.133-6.4-21.333-26.667C305.067,312.664,341.333,220.931,347.733,213.464z"/>
</g>
<g>
	<path style="fill:#344A5E;" d="M382.933,92.931c0,0,6.4,24.533,25.6,42.667c19.2,18.133,24.533,19.2,24.533,19.2
		s9.6,18.133-5.333,40.533s-25.6,33.067-38.4,45.867c-12.8,11.733-23.467,32-25.6,44.8c-3.2,12.8,0,18.133-8.533,28.8
		c0,0,26.667,0,41.6-21.333c14.933-22.4,13.867-35.2,27.733-48c13.867-12.8,32-11.733,35.2-21.333c3.2-9.6-6.4-25.6-1.067-42.667
		c5.333-17.067,8.533-49.067-2.133-73.6c-9.6-24.533-28.8-32-54.4-30.933s-39.467,20.267-44.8,30.933
		c-4.267,11.733-6.4,29.867-7.467,35.2c0,0,5.333-20.267,11.733-30.933C368,101.464,369.067,95.064,382.933,92.931z"/>
	<path style="fill:#344A5E;" d="M426.667,181.464c-4.267,12.8-13.867,23.467-23.467,33.067c-9.6,9.6-19.2,20.267-24.533,32
		c8.533-10.667,19.2-18.133,29.867-26.667c10.667-8.533,20.267-18.133,25.6-30.933"/>
</g>
<path style="fill:#4ABAA5;" d="M504.533,427.864c-4.267,3.2-25.6,14.933-41.6,23.467c-10.667-18.133-17.067-30.933-17.067-49.067
	c3.2-1.067,5.333-2.133,6.4-2.133c0,0-1.067-8.533-3.2-19.2c-2.133-10.667-5.333-24.533-9.6-30.933
	c-2.133-4.267-5.333-8.533-6.4-11.733c-7.467-13.867-11.733-29.867-11.733-45.867c0-7.467,2.133-16,5.333-23.467
	c11.733-28.8,33.067-32,40.533-28.8c4.267,1.067,8.533,4.267,11.733,10.667l0,0c3.2,5.333,6.4,12.8,8.533,22.4
	c4.267,21.333,7.467,48,8.533,55.467c1.067,6.4,12.8,59.733,16,67.2C513.067,402.264,510.933,422.531,504.533,427.864z"/>
<path style="fill:#344A5E;" d="M369.067,210.264l-29.867-3.2c-16,29.867-30.933,69.333-21.333,99.2
	c1.067-11.733,5.333-21.333,11.733-30.933c7.467-11.733,12.8-24.533,18.133-37.333c-2.133,14.933-1.067,28.8,4.267,42.667
	c-1.067-5.333,1.067-11.733,4.267-16c2.133-5.333,6.4-10.667,7.467-16C365.867,240.131,370.133,215.598,369.067,210.264z"/>
<path style="fill:#66C6B9;" d="M270.933,112.131L233.6,149.464c4.267,5.333,6.4,11.733,7.467,19.2h52.267
	C292.267,147.331,283.733,128.131,270.933,112.131z"/>
<path style="fill:#344A5E;" d="M196.267,213.464c-18.133-2.133-32-16-34.133-34.133h-52.267c3.2,46.933,39.467,84.267,86.4,86.4
	V213.464z"/>
<path style="fill:#55C0EB;" d="M163.2,168.664c2.133-18.133,16-32,34.133-34.133V82.264c-46.933,3.2-84.267,39.467-86.4,86.4H163.2z
	"/>
<path style="fill:#F3705A;" d="M241.067,179.331c-2.133,18.133-16,32-34.133,34.133v52.267c46.933-3.2,84.267-39.467,86.4-86.4
	H241.067z"/>
<path style="fill:#FFD15C;" d="M206.933,134.531c7.467,1.067,13.867,3.2,19.2,7.467l37.333-37.333
	c-14.933-13.867-34.133-22.4-55.467-23.467L206.933,134.531z"/>
<g>
</g>
<g>
</g>
<g>
</g>
<g>
</g>
<g>
</g>
<g>
</g>
<g>
</g>
<g>
</g>
<g>
</g>
<g>
</g>
<g>
</g>
<g>
</g>
<g>
</g>
<g>
</g>
<g>
</g>
</svg>
